<mxfile host="app.diagrams.net" agent="Mozilla/5.0 (Windows NT 10.0; Win64; x64) AppleWebKit/537.36 (KHTML, like Gecko) Chrome/131.0.0.0 Safari/537.36" version="24.9.1">
  <diagram name="Page-1" id="FLY4I1a76ElrdOwgF0mr">
    <mxGraphModel dx="1434" dy="780" grid="1" gridSize="10" guides="1" tooltips="1" connect="1" arrows="1" fold="1" page="1" pageScale="1" pageWidth="850" pageHeight="1100" math="0" shadow="0">
      <root>
        <mxCell id="0" />
        <mxCell id="1" parent="0" />
        <mxCell id="G_jl3AIeH0Af_aYePdg2-3" value="" style="edgeStyle=orthogonalEdgeStyle;rounded=0;orthogonalLoop=1;jettySize=auto;html=1;" edge="1" parent="1" source="G_jl3AIeH0Af_aYePdg2-1" target="G_jl3AIeH0Af_aYePdg2-2">
          <mxGeometry relative="1" as="geometry" />
        </mxCell>
        <mxCell id="G_jl3AIeH0Af_aYePdg2-6" value="" style="edgeStyle=orthogonalEdgeStyle;rounded=0;orthogonalLoop=1;jettySize=auto;html=1;" edge="1" parent="1" source="G_jl3AIeH0Af_aYePdg2-1" target="G_jl3AIeH0Af_aYePdg2-5">
          <mxGeometry relative="1" as="geometry" />
        </mxCell>
        <mxCell id="G_jl3AIeH0Af_aYePdg2-9" value="" style="edgeStyle=orthogonalEdgeStyle;rounded=0;orthogonalLoop=1;jettySize=auto;html=1;" edge="1" parent="1" source="G_jl3AIeH0Af_aYePdg2-1" target="G_jl3AIeH0Af_aYePdg2-8">
          <mxGeometry relative="1" as="geometry" />
        </mxCell>
        <mxCell id="G_jl3AIeH0Af_aYePdg2-10" value="" style="edgeStyle=orthogonalEdgeStyle;rounded=0;orthogonalLoop=1;jettySize=auto;html=1;" edge="1" parent="1" source="G_jl3AIeH0Af_aYePdg2-1" target="G_jl3AIeH0Af_aYePdg2-8">
          <mxGeometry relative="1" as="geometry" />
        </mxCell>
        <mxCell id="G_jl3AIeH0Af_aYePdg2-1" value="home" style="rounded=0;whiteSpace=wrap;html=1;" vertex="1" parent="1">
          <mxGeometry x="365" y="40" width="120" height="60" as="geometry" />
        </mxCell>
        <mxCell id="G_jl3AIeH0Af_aYePdg2-14" value="" style="edgeStyle=orthogonalEdgeStyle;rounded=0;orthogonalLoop=1;jettySize=auto;html=1;" edge="1" parent="1" source="G_jl3AIeH0Af_aYePdg2-2" target="G_jl3AIeH0Af_aYePdg2-13">
          <mxGeometry relative="1" as="geometry" />
        </mxCell>
        <mxCell id="G_jl3AIeH0Af_aYePdg2-2" value="shop" style="whiteSpace=wrap;html=1;rounded=0;" vertex="1" parent="1">
          <mxGeometry x="160" y="120" width="120" height="60" as="geometry" />
        </mxCell>
        <mxCell id="G_jl3AIeH0Af_aYePdg2-12" value="" style="edgeStyle=orthogonalEdgeStyle;rounded=0;orthogonalLoop=1;jettySize=auto;html=1;" edge="1" parent="1" source="G_jl3AIeH0Af_aYePdg2-5" target="G_jl3AIeH0Af_aYePdg2-11">
          <mxGeometry relative="1" as="geometry" />
        </mxCell>
        <mxCell id="G_jl3AIeH0Af_aYePdg2-5" value="about me" style="whiteSpace=wrap;html=1;rounded=0;" vertex="1" parent="1">
          <mxGeometry x="570" y="120" width="120" height="60" as="geometry" />
        </mxCell>
        <mxCell id="G_jl3AIeH0Af_aYePdg2-19" value="" style="edgeStyle=orthogonalEdgeStyle;rounded=0;orthogonalLoop=1;jettySize=auto;html=1;" edge="1" parent="1" source="G_jl3AIeH0Af_aYePdg2-8" target="G_jl3AIeH0Af_aYePdg2-18">
          <mxGeometry relative="1" as="geometry" />
        </mxCell>
        <mxCell id="G_jl3AIeH0Af_aYePdg2-8" value="cart" style="whiteSpace=wrap;html=1;rounded=0;" vertex="1" parent="1">
          <mxGeometry x="365" y="120" width="120" height="60" as="geometry" />
        </mxCell>
        <mxCell id="G_jl3AIeH0Af_aYePdg2-11" value="donation page" style="whiteSpace=wrap;html=1;rounded=0;" vertex="1" parent="1">
          <mxGeometry x="570" y="210" width="120" height="60" as="geometry" />
        </mxCell>
        <mxCell id="G_jl3AIeH0Af_aYePdg2-16" value="" style="edgeStyle=orthogonalEdgeStyle;rounded=0;orthogonalLoop=1;jettySize=auto;html=1;" edge="1" parent="1" source="G_jl3AIeH0Af_aYePdg2-13" target="G_jl3AIeH0Af_aYePdg2-15">
          <mxGeometry relative="1" as="geometry" />
        </mxCell>
        <mxCell id="G_jl3AIeH0Af_aYePdg2-13" value="categories" style="whiteSpace=wrap;html=1;rounded=0;" vertex="1" parent="1">
          <mxGeometry x="160" y="210" width="120" height="60" as="geometry" />
        </mxCell>
        <mxCell id="G_jl3AIeH0Af_aYePdg2-17" style="edgeStyle=orthogonalEdgeStyle;rounded=0;orthogonalLoop=1;jettySize=auto;html=1;entryX=0;entryY=0.5;entryDx=0;entryDy=0;" edge="1" parent="1" source="G_jl3AIeH0Af_aYePdg2-15" target="G_jl3AIeH0Af_aYePdg2-8">
          <mxGeometry relative="1" as="geometry">
            <mxPoint x="320" y="140" as="targetPoint" />
          </mxGeometry>
        </mxCell>
        <mxCell id="G_jl3AIeH0Af_aYePdg2-15" value="product pages" style="whiteSpace=wrap;html=1;rounded=0;" vertex="1" parent="1">
          <mxGeometry x="160" y="300" width="120" height="60" as="geometry" />
        </mxCell>
        <mxCell id="G_jl3AIeH0Af_aYePdg2-21" value="" style="edgeStyle=orthogonalEdgeStyle;rounded=0;orthogonalLoop=1;jettySize=auto;html=1;" edge="1" parent="1" source="G_jl3AIeH0Af_aYePdg2-18" target="G_jl3AIeH0Af_aYePdg2-20">
          <mxGeometry relative="1" as="geometry" />
        </mxCell>
        <mxCell id="G_jl3AIeH0Af_aYePdg2-18" value="checkout" style="whiteSpace=wrap;html=1;rounded=0;" vertex="1" parent="1">
          <mxGeometry x="365" y="210" width="120" height="60" as="geometry" />
        </mxCell>
        <mxCell id="G_jl3AIeH0Af_aYePdg2-20" value="thank you with&lt;div&gt;order number&lt;/div&gt;" style="whiteSpace=wrap;html=1;rounded=0;" vertex="1" parent="1">
          <mxGeometry x="365" y="300" width="120" height="60" as="geometry" />
        </mxCell>
      </root>
    </mxGraphModel>
  </diagram>
</mxfile>
